# xmcd
#
# Track frame offsets: 
#        150
#        11812
#        24510
#        42342
#        53715
#        66770
#        80240
#        92625
#        107100
#        119242
#        131607
#        147440
#        159717
#        173360
#        187345
#        198550
#        210952
#        222842
#        235495
#        248162
#        260300
#        271935
#        280195
#        295902
#        307852
#        321505
#
# Disc length: 4482 seconds
#
# Revision: 1
# Processed by: cddbd v1.4PL0 Copyright (c) Steve Scherf et al.
# Submitted via: ExactAudioCopy v0.90b4
#
DISCID=8e11801a
DTITLE=Various Artist - Train 45
DYEAR=1998
DGENRE=Blues
TTITLE0=Steve Ledofrd, Wade Mainer, And Zeke Morris - Riding on That T
TTITLE0=rain 45
TTITLE1=Curly Fox - Wreck of the 1256
TTITLE2=Arizona Wranglers - Wreck of the 97
TTITLE3=Lullaby Larkers - True and Trembling Brakeman
TTITLE4=Jolly Two - Railroad Stomp
TTITLE5=G. B. Grayson and Henry Whitter - He is Coming to Us Dead
TTITLE6=Gene McNulty - The Lightning Express
TTITLE7=G.B. Grayson and Henry Whitter - Red and Green Signal Lights
TTITLE8=Wade Mainer and Sons of the Mountaineers - Old Ruben
TTITLE9=Crowder Brothers - Depot Blues
TTITLE10=Andrew and Jim Baxter - K. C. Railroad Blues
TTITLE11=Joe "Cannonball" Lewis - Train Whistle Nightmare
TTITLE12=George Edgin - Pine Knot Cannonball
TTITLE13=Palmer McAbee - McAbee's Railroad Piece
TTITLE14=Lew Childre - Riding the Elevated Train
TTITLE15=Captain Appleblossom - Time Table Blues
TTITLE16=Pullman Porters Quartette - Pullman Passenger Train
TTITLE17=Jerry and Sky - Orange Blossom Special
TTITLE18=Home and Jethro - Poor Little Liza, Poor Girl
TTITLE19=Harry McClintock - Jerry, Go Ile That Car
TTITLE20=T. C. I. Section Crew - Section Gang Song
TTITLE21=Convicts of Cummins Farm, Gould, AR - Rock Island Line
TTITLE22=Convicts of Bellwood Prison Camp, Atlanta, GA - The Longest T
TTITLE22=rain
TTITLE23=Golden Gate Jubilee Quartet - Golden Gate Gospel Train
TTITLE24=Uncle Dave Macon - Death of John Henry
TTITLE25=Sam McGee - Railroad Blues
EXTD=Railroad Songs of the Early 1900's
EXTT0=
EXTT1=
EXTT2=
EXTT3=
EXTT4=
EXTT5=
EXTT6=
EXTT7=
EXTT8=
EXTT9=
EXTT10=
EXTT11=
EXTT12=
EXTT13=
EXTT14=
EXTT15=
EXTT16=
EXTT17=
EXTT18=
EXTT19=
EXTT20=
EXTT21=
EXTT22=
EXTT23=
EXTT24=
EXTT25=
PLAYORDER=
